<svg xmlns="http://www.w3.org/2000/svg" width="23.565" height="23.56" viewBox="0 0 23.565 23.56">
  <path id="Icon_awesome-instagram" data-name="Icon awesome-instagram" d="M11.78,7.977a6.04,6.04,0,1,0,6.04,6.04A6.031,6.031,0,0,0,11.78,7.977Zm0,9.967a3.927,3.927,0,1,1,3.927-3.927A3.934,3.934,0,0,1,11.78,17.945Zm7.7-10.215a1.409,1.409,0,1,1-1.409-1.409A1.406,1.406,0,0,1,19.476,7.73Zm4,1.43a6.972,6.972,0,0,0-1.9-4.936,7.018,7.018,0,0,0-4.936-1.9c-1.945-.11-7.775-.11-9.72,0a7.008,7.008,0,0,0-4.936,1.9,7,7,0,0,0-1.9,4.936c-.11,1.945-.11,7.775,0,9.72a6.972,6.972,0,0,0,1.9,4.936,7.027,7.027,0,0,0,4.936,1.9c1.945.11,7.775.11,9.72,0a6.972,6.972,0,0,0,4.936-1.9,7.018,7.018,0,0,0,1.9-4.936c.11-1.945.11-7.77,0-9.715Zm-2.513,11.8a3.976,3.976,0,0,1-2.24,2.24c-1.551.615-5.231.473-6.945.473s-5.4.137-6.945-.473a3.976,3.976,0,0,1-2.24-2.24c-.615-1.551-.473-5.231-.473-6.945s-.137-5.4.473-6.945a3.976,3.976,0,0,1,2.24-2.24c1.551-.615,5.231-.473,6.945-.473s5.4-.137,6.945.473a3.976,3.976,0,0,1,2.24,2.24c.615,1.551.473,5.231.473,6.945S21.579,19.417,20.964,20.962Z" transform="translate(0.005 -2.238)" fill="#fff"/>
</svg>
