<?xml version="1.0" encoding="utf-8"?>
<!-- Generator: Adobe Illustrator 24.0.0, SVG Export Plug-In . SVG Version: 6.00 Build 0)  -->
<svg version="1.1" id="Layer_1" xmlns="http://www.w3.org/2000/svg" xmlns:xlink="http://www.w3.org/1999/xlink" x="0px" y="0px"
	 viewBox="0 0 341.2 81" style="enable-background:new 0 0 341.2 81;" xml:space="preserve">
<style type="text/css">
	.st0{fill-rule:evenodd;clip-rule:evenodd;fill:#026D9E;}
	.st1{fill-rule:evenodd;clip-rule:evenodd;fill:#C21F25;}
	.st2{fill-rule:evenodd;clip-rule:evenodd;fill:#BBBDC0;}
</style>
<g>
	<g>
		<path class="st0" d="M316.4,53.4c-0.5-0.2-1.2-0.3-2.4-0.3h-0.8c-0.9,0-1.4-0.5-1.6-1.4c-0.2-0.9-0.2-2.3-0.2-4.2V31.2
			c0-2.5-0.6-4.5-1.8-6c-1.2-1.5-2.7-2.6-4.6-3.4c-1.9-0.8-4-1.3-6.4-1.6c-2.4-0.2-4.8-0.4-7.3-0.4c-3.3,0-6.3,0.2-9.1,0.5
			c-2.7,0.3-5.1,0.9-7,1.6c-1.9,0.7-3.5,1.6-4.6,2.8c-1.1,1.1-1.6,2.5-1.6,4c0.1,1.2,0.4,2.2,1,3c0.6,0.8,1.3,1.4,2.2,1.8
			c0.9,0.5,1.8,0.8,2.8,0.9c1,0.2,2,0.2,3,0.2c0.9,0,1.8-0.1,2.9-0.2c1.1-0.2,2-0.5,2.9-0.9c0.9-0.5,1.6-1.1,2.2-1.8
			c0.6-0.8,0.9-1.8,0.9-3c0-1-0.2-1.8-0.6-2.4c-0.4-0.6-0.8-1.1-1.3-1.4c1.2-0.7,2.5-1,3.7-1c0.7,0,1.3,0.2,1.8,0.5
			c0.5,0.3,0.8,0.8,1.1,1.4c0.2,0.6,0.4,1.2,0.5,2c0.1,0.7,0.2,1.5,0.2,2.2v3.7c-1.1,0.5-2.4,0.9-4.1,1.2c-1.7,0.3-3.5,0.6-5.4,1
			c-1.9,0.3-3.9,0.8-5.9,1.3c-2,0.5-3.8,1.3-5.4,2.2c-1.6,0.9-2.9,2-3.9,3.4c-1,1.4-1.5,3.1-1.5,5.2c0,2.3,0.5,4.1,1.4,5.4
			c1,1.3,2.1,2.3,3.5,3c1.4,0.7,2.9,1.1,4.4,1.4c1.5,0.2,2.9,0.3,4.2,0.3c3.9,0,6.9-0.5,9-1.6c2.1-1.1,3.6-2.4,4.6-3.9
			c0.2,1.3,0.8,2.3,1.6,3c0.9,0.7,1.9,1.2,3.1,1.6c1.2,0.4,2.4,0.6,3.7,0.7c1.3,0.1,2.5,0.1,3.6,0.1c1,0,2.2,0,3.6,0
			c1.4,0,2.7-0.1,3.9-0.3c1.2-0.2,2.3-0.5,3.2-0.8c0.9-0.4,1.3-0.9,1.3-1.5C317.1,54.1,316.9,53.6,316.4,53.4z M292.2,45.7
			c0,0.9-0.1,1.6-0.4,2.4c-0.3,0.7-0.7,1.3-1.1,1.8c-0.4,0.5-0.9,0.9-1.4,1.2c-0.5,0.3-1,0.4-1.5,0.4c-0.3,0-0.6,0-0.9-0.1
			c-0.3-0.1-0.6-0.2-0.8-0.6c-0.2-0.3-0.5-0.8-0.6-1.6c-0.2-0.7-0.3-1.7-0.3-3v-0.9c0-1.4,0.1-2.5,0.4-3.4c0.2-0.9,0.6-1.5,1.2-2.1
			c0.5-0.5,1.3-1,2.2-1.4c0.9-0.4,2-0.8,3.4-1.3V45.7z M255.5,24.6c-1.8,0-3.2,0.3-4.4,0.8c-1.1,0.5-2.4,1.4-3.8,2.7l14.5,24.6
			c0.1,0.2,0.3,0.4,0.6,0.5c0.3,0.1,0.5,0.2,0.8,0.2c0.3,0.1,0.6,0.1,0.8,0.1c0.2,0,0.4,0,0.4,0c0.9,0.1,1.5,0.2,1.9,0.4
			c0.4,0.2,0.6,0.7,0.6,1.4c0,0.7-0.2,1.2-0.7,1.4c-0.5,0.2-1.3,0.3-2.4,0.3H245c-1.1,0-2-0.1-2.5-0.4c-0.6-0.3-1.1-0.8-1.5-1.5
			l-8.6-14.6l-1.7,1.2v5.9c0,1.9,0.1,3.3,0.2,4.2c0.2,0.9,0.7,1.4,1.6,1.4c0.3,0,0.7,0.1,1,0.3c0.4,0.2,0.6,0.7,0.6,1.6
			s-0.2,1.5-0.6,1.6c-0.4,0.2-1,0.3-1.8,0.3h-22.9c-1.1,0-1.9-0.1-2.4-0.3c-0.5-0.2-0.7-0.7-0.7-1.6s0.2-1.5,0.7-1.6
			c0.5-0.2,1.2-0.3,2.4-0.3h0.8c0.9,0,1.4-0.5,1.6-1.4c0.2-0.9,0.2-2.3,0.2-4.2V12.2c0-1.3-0.1-2.4-0.3-3.2
			c-0.2-0.8-0.8-1.3-1.8-1.6c-1.2-0.3-2-0.7-2.2-1.2c-0.2-0.5-0.4-0.9-0.4-1.3c0-0.6,0.6-1,1.8-1.2c3.7-0.5,6.9-0.9,9.5-1.2
			c2.6-0.3,4.7-0.5,6.3-0.7c1.6-0.2,2.8-0.3,3.6-0.4c0.8-0.1,1.1-0.1,1.2-0.1c0.6,0,1.1,0.2,1.2,0.6c0.2,0.4,0.3,0.9,0.3,1.7v33.1
			l8.8-7c1-0.7,1.7-1.5,1.9-2.1c0.3-0.7,0.4-1.2,0.4-1.6c0-1-0.5-1.5-1.5-1.5c-1.1,0-1.9-0.1-2.4-0.3c-0.5-0.2-0.7-0.7-0.7-1.6
			c0-0.7,0.2-1.3,0.5-1.5c0.3-0.3,1-0.4,1.9-0.4H257c1.1,0,1.9,0.1,2.4,0.3c0.5,0.2,0.7,0.7,0.7,1.6c0,0.9-0.2,1.5-0.7,1.6
			c-0.5,0.2-1.2,0.3-2.4,0.3H255.5z M203.5,55c0,0.9-0.2,1.5-0.7,1.6c-0.5,0.2-1.2,0.3-2.4,0.3h-23.2c-1.1,0-1.9-0.1-2.4-0.3
			c-0.5-0.2-0.7-0.7-0.7-1.6s0.2-1.5,0.7-1.6c0.5-0.2,1.2-0.3,2.4-0.3h-0.5c0.9,0,1.4-0.5,1.6-1.4c0.2-0.9,0.2-2.3,0.2-4.2V30
			c0-1.3-0.1-2.5-0.3-3.5c-0.2-1-0.8-1.6-1.8-1.9h-9.3v22.9c0,1.9,0.1,3.3,0.2,4.2c0.2,0.9,0.7,1.4,1.6,1.4c1.1,0,1.9,0.1,2.4,0.3
			c0.5,0.2,0.7,0.7,0.7,1.6s-0.2,1.5-0.7,1.6c-0.5,0.2-1.2,0.3-2.4,0.3h-23.7c-1.1,0-1.9-0.1-2.4-0.3c-0.5-0.2-0.7-0.7-0.7-1.6
			s0.2-1.5,0.7-1.6c0.5-0.2,1.2-0.3,2.4-0.3h0.8c0.9,0,1.4-0.5,1.6-1.4c0.2-0.9,0.2-2.3,0.2-4.2V24.6h-2.6c-1.1,0-1.9-0.1-2.4-0.3
			c-0.5-0.2-0.7-0.7-0.7-1.6c0-0.9,0.2-1.5,0.7-1.6c0.5-0.2,1.2-0.3,2.4-0.3h2.6v-2.2c0-2.6,0.3-5.1,1-7.3c0.7-2.3,2-4.2,4.1-5.9
			c2.1-1.7,5-3,8.9-4S170.9,0,177.3,0c3.3,0,6.2,0.1,8.9,0.3c2.7,0.2,5,0.6,6.8,1.1c1.9,0.6,3.3,1.4,4.4,2.4
			c0.1,0.1,0.2,0.3,0.4,0.4c0,0,0.1,0.1,0.1,0.1c0.1,0.1,0.1,0.2,0.2,0.3c0,0,0,0,0,0c0.7,0.9,1,2,1,3.4c0,1.4-0.4,2.6-1,3.6
			c-0.3,0.4-0.5,0.8-0.9,1.2c-0.1,0.1-0.3,0.2-0.4,0.3c-0.5,0.4-1,0.8-1.6,1.1c-1.1,0.6-2.4,1-3.7,1.3c-1.4,0.3-2.7,0.4-4,0.4
			c-1.3,0-2.6-0.1-4-0.4c-1.4-0.3-2.6-0.7-3.7-1.3c-1.1-0.6-2.1-1.4-2.8-2.4c-0.7-1-1.1-2.3-1.1-3.8c0-1.5,0.3-2.6,0.9-3.5
			c-0.4,0-0.8,0-1.2,0c-0.8,0-1.7,0.1-2.6,0.2c-1,0.1-1.9,0.4-2.7,0.8c-0.9,0.4-1.6,1-2.2,1.8c-0.6,0.8-0.9,1.9-0.9,3.2v10.3h27.6
			c1.1,0,1.9,0.1,2.4,0.3c0.5,0.2,0.7,0.7,0.7,1.6c0,0,0,0.1,0,0.1c0,0.2,0,0.3,0,0.5v24.2c0,1.9,0.1,3.3,0.2,4.2
			c0.2,0.9,0.7,1.4,1.6,1.4h0.8c1.1,0,1.9,0.1,2.4,0.3C203.3,53.6,203.5,54.1,203.5,55z M138.8,53.4c-0.5-0.2-1.2-0.3-2.4-0.3h-0.8
			c-0.9,0-1.4-0.5-1.6-1.4c-0.2-0.9-0.2-2.3-0.2-4.2V31.2c0-2.5-0.6-4.5-1.8-6c-1.2-1.5-2.7-2.6-4.6-3.4c-1.9-0.8-4-1.3-6.4-1.6
			c-2.4-0.2-4.8-0.4-7.3-0.4c-3.3,0-6.3,0.2-9.1,0.5c-2.7,0.3-5.1,0.9-7,1.6c-1.9,0.7-3.5,1.6-4.6,2.8c-1.1,1.1-1.6,2.5-1.6,4
			c0,1.2,0.4,2.2,1,3c0.6,0.8,1.3,1.4,2.2,1.8c0.9,0.5,1.8,0.8,2.8,0.9c1,0.2,2,0.2,3,0.2c0.9,0,1.8-0.1,2.9-0.2
			c1.1-0.2,2-0.5,2.9-0.9c0.9-0.5,1.6-1.1,2.2-1.8c0.6-0.8,0.9-1.8,0.9-3c0-1-0.2-1.8-0.6-2.4c-0.4-0.6-0.8-1.1-1.3-1.4
			c1.2-0.7,2.5-1,3.7-1c0.7,0,1.3,0.2,1.8,0.5c0.5,0.3,0.8,0.8,1.1,1.4c0.2,0.6,0.4,1.2,0.5,2c0.1,0.7,0.2,1.5,0.2,2.2v3.7
			c-1.1,0.5-2.4,0.9-4.1,1.2c-1.7,0.3-3.5,0.6-5.4,1c-1.9,0.3-3.9,0.8-5.9,1.3c-2,0.5-3.8,1.3-5.4,2.2c-1.6,0.9-2.9,2-3.9,3.4
			c-1,1.4-1.5,3.1-1.5,5.2c0,2.3,0.5,4.1,1.4,5.4c1,1.3,2.1,2.3,3.5,3c1.4,0.7,2.9,1.1,4.4,1.4c1.5,0.2,2.9,0.3,4.2,0.3
			c3.9,0,6.9-0.5,9-1.6c2.1-1.1,3.6-2.4,4.6-3.9c0.2,1.3,0.8,2.3,1.6,3c0.9,0.7,1.9,1.2,3.1,1.6c1.2,0.4,2.4,0.6,3.7,0.7
			c1.3,0.1,2.5,0.1,3.6,0.1c1,0,2.2,0,3.6,0c1.4,0,2.7-0.1,3.9-0.3c1.2-0.2,2.3-0.5,3.2-0.8c0.9-0.4,1.3-0.9,1.3-1.5
			C139.4,54.1,139.2,53.6,138.8,53.4z M114.6,45.7c0,0.9-0.1,1.6-0.4,2.4c-0.3,0.7-0.7,1.3-1.1,1.8c-0.4,0.5-0.9,0.9-1.4,1.2
			c-0.5,0.3-1,0.4-1.5,0.4c-0.3,0-0.6,0-0.9-0.1c-0.3-0.1-0.6-0.2-0.8-0.6c-0.2-0.3-0.5-0.8-0.6-1.6c-0.2-0.7-0.3-1.7-0.3-3v-0.9
			c0-1.4,0.1-2.5,0.4-3.4c0.2-0.9,0.6-1.5,1.2-2.1c0.5-0.5,1.3-1,2.2-1.4c0.9-0.4,2-0.8,3.4-1.3V45.7z M66.1,28.2
			c-1.1,0.6-2,1.7-2.7,3c-0.7,1.4-1.1,3.1-1.1,5.3v11c0,1.9,0.1,3.3,0.2,4.2c0.2,0.9,0.7,1.4,1.6,1.4H65c1.1,0,1.9,0.1,2.4,0.3
			c0.5,0.2,0.7,0.7,0.7,1.6s-0.2,1.5-0.7,1.6C66.9,56.9,66.1,57,65,57H40.5c-1.1,0-1.9-0.1-2.4-0.3c-0.5-0.2-0.7-0.7-0.7-1.6
			s0.2-1.5,0.7-1.6c0.5-0.2,1.2-0.3,2.4-0.3h0.8c0.9,0,1.4-0.5,1.6-1.4c0.2-0.9,0.2-2.3,0.2-4.2V29.3c0-1.3-0.1-2.5-0.3-3.4
			C42.7,25,42,24.6,41,24.6h-1.2c-0.5,0-0.9-0.2-1.1-0.6c-0.2-0.4-0.3-0.8-0.3-1.2c0-0.6,0.6-1,1.8-1.2c3.7-0.5,6.9-0.9,9.5-1.2
			s4.7-0.5,6.3-0.7c1.6-0.2,2.8-0.3,3.6-0.4c0.8-0.1,1.1-0.1,1.2-0.1c0.6,0,1.1,0.2,1.2,0.6c0.2,0.4,0.3,0.9,0.3,1.7V28
			c0.7-1.1,1.6-2.1,2.6-3.1c1-1,2-1.9,3.2-2.6c1.2-0.8,2.4-1.4,3.8-1.8c1.3-0.5,2.7-0.7,4.2-0.7h0.4c1.1,0,2.3,0.1,3.5,0.4
			c1.2,0.3,2.3,0.7,3.3,1.4c1,0.6,1.8,1.5,2.5,2.6c0.7,1.1,1,2.5,1,4.1c0,1.5-0.3,2.8-1,3.9c-0.7,1-1.5,1.9-2.5,2.5
			c-1,0.6-2.1,1.1-3.3,1.4c-1.2,0.3-2.4,0.4-3.5,0.4c-1.1,0-2.3-0.1-3.5-0.4c-1.2-0.3-2.3-0.7-3.3-1.4c-1-0.6-1.8-1.5-2.5-2.5
			C66.4,31.1,66.1,29.8,66.1,28.2z M5.5,24.6H3c-1.1,0-1.9-0.1-2.4-0.3C0.2,24.1,0,23.5,0,22.6c0-0.8,0.2-1.3,0.6-1.5
			c0.4-0.2,1.1-0.3,2-0.4c2.4-0.1,5.2-1.1,8.3-3c3.1-1.9,6.4-5.2,9.9-10c0.4-0.5,0.7-0.8,1-1c0.3-0.2,0.7-0.2,1.1-0.2
			c0.6,0,1,0.2,1.4,0.6c0.3,0.4,0.5,0.9,0.5,1.4v12.2h5.5c1.1,0,1.9,0.1,2.4,0.3c0.5,0.2,0.7,0.7,0.7,1.6c0,0.9-0.2,1.5-0.7,1.6
			c-0.5,0.2-1.2,0.3-2.4,0.3h-5.5v22.6c0,1.1,0.1,2,0.4,2.7c0.3,0.7,0.6,1.2,1,1.6c0.4,0.3,0.8,0.6,1.3,0.7c0.5,0.1,0.8,0.2,1.2,0.2
			c0.9,0,1.7-0.1,2.2-0.4c0.6-0.3,1.2-0.4,1.8-0.4c0.4,0,0.8,0.2,1.2,0.5c0.4,0.3,0.6,0.8,0.6,1.4c0,0.4-0.1,0.7-0.2,1.1
			c-0.2,0.3-0.5,0.7-0.9,0.9c-0.9,0.6-2.5,1.2-4.6,1.7c-2.2,0.6-5,0.8-8.5,0.8c-1.9,0-3.7-0.1-5.4-0.4c-1.8-0.2-3.3-0.7-4.7-1.5
			c-1.4-0.7-2.5-1.8-3.3-3.2c-0.9-1.4-1.3-3.2-1.3-5.5V24.6z"/>
		<path class="st1" d="M320.6,49.1c0-1.5,0.3-2.8,1-3.8c0.7-1,1.5-1.8,2.5-2.4c1-0.6,2.1-1.1,3.3-1.3c1.2-0.3,2.4-0.4,3.5-0.4
			c1.1,0,2.3,0.1,3.5,0.4c1.2,0.3,2.3,0.7,3.3,1.3c1,0.6,1.8,1.4,2.5,2.4c0.7,1,1,2.3,1,3.8c0,1.5-0.3,2.7-1,3.8
			c-0.7,1-1.5,1.8-2.5,2.4c-1,0.6-2.1,1-3.3,1.3c-1.2,0.3-2.4,0.4-3.5,0.4c-1.1,0-2.3-0.1-3.5-0.4c-1.2-0.3-2.3-0.7-3.3-1.3
			c-1-0.6-1.8-1.4-2.5-2.4C320.9,51.9,320.6,50.6,320.6,49.1"/>
	</g>
	<path class="st2" d="M266.7,78.6v2.2h-3.1V70.5h3.1v6l3.1-2.6h3.7l-3.8,2.9l3.9,4h-3.6l-2.6-2.8 M248.7,80.8h-3.1v-6.9h2.4l0.4,0.9
		c0.4-0.3,0.9-0.6,1.5-0.8c0.5-0.2,1.1-0.3,1.8-0.3c1.4,0,2.4,0.4,2.9,1.1c0.4-0.3,1-0.6,1.5-0.8c0.6-0.2,1.2-0.3,1.8-0.3
		c1.1,0,1.9,0.2,2.5,0.6c0.6,0.4,0.9,1,0.9,1.8v4.7h-3.1v-4.5c0-0.3-0.1-0.5-0.3-0.7c-0.2-0.2-0.5-0.3-0.9-0.3c-0.3,0-0.7,0.1-1,0.2
		c-0.4,0.1-0.7,0.3-0.9,0.5v4.8h-3.1v-4.5c0-0.3-0.1-0.5-0.3-0.7c-0.2-0.2-0.5-0.3-0.9-0.3c-0.3,0-0.7,0.1-1,0.2
		c-0.4,0.1-0.7,0.3-0.9,0.5V80.8z M242.5,78.8c0.5,0,0.8,0.1,1.1,0.3c0.3,0.2,0.4,0.5,0.4,0.8c0,0.3-0.1,0.6-0.4,0.8
		c-0.3,0.2-0.7,0.3-1.1,0.3c-0.5,0-0.8-0.1-1.1-0.3c-0.3-0.2-0.4-0.5-0.4-0.8c0-0.3,0.1-0.6,0.4-0.8C241.6,78.9,242,78.8,242.5,78.8
		z M236.3,77.9l-0.7,0c-0.4,0-0.7,0-1,0.1c-0.3,0-0.5,0.1-0.6,0.2c-0.2,0.1-0.3,0.2-0.3,0.3c-0.1,0.1-0.1,0.2-0.1,0.3
		c0,0.3,0.1,0.5,0.4,0.6c0.3,0.1,0.6,0.2,0.9,0.2s0.6-0.1,0.9-0.2c0.3-0.1,0.5-0.3,0.6-0.4V77.9z M231.2,74.5
		c0.6-0.2,1.2-0.4,1.9-0.6c0.7-0.1,1.5-0.2,2.2-0.2c1.2,0,2.2,0.2,3,0.6c0.8,0.4,1.1,1.1,1.1,2v4.5h-2.4l-0.3-0.7h-0.1
		c-0.3,0.3-0.7,0.5-1.2,0.6c-0.5,0.2-1.1,0.2-1.7,0.2c-0.6,0-1.1-0.1-1.5-0.2c-0.4-0.1-0.8-0.3-1.1-0.5c-0.3-0.2-0.5-0.4-0.6-0.7
		c-0.1-0.3-0.2-0.5-0.2-0.8c0-0.4,0.1-0.8,0.4-1c0.3-0.3,0.6-0.5,1-0.7c0.4-0.2,1-0.3,1.5-0.4c0.6-0.1,1.2-0.1,1.9-0.1h1v-0.4
		c0-0.3-0.1-0.5-0.4-0.6c-0.3-0.1-0.6-0.2-1.1-0.2c-0.4,0-0.8,0-1.2,0.1c-0.4,0.1-0.8,0.2-1.3,0.4L231.2,74.5z M222.7,78.6v2.2h-3.1
		V70.5h3.1v6l3.1-2.6h3.7l-3.8,2.9l3.9,4h-3.6l-2.6-2.8L222.7,78.6z M214,80.8v-5.4h-3.1v5.4h-3.1v-5.4h-1.5v-1.5h1.5v-0.6
		c0-0.5,0.1-0.9,0.3-1.2c0.2-0.4,0.5-0.6,0.8-0.9c0.4-0.2,0.8-0.4,1.3-0.5c0.5-0.1,1.1-0.2,1.7-0.2c0.6,0,1.1,0.1,1.7,0.1
		c0.5,0.1,1,0.2,1.4,0.4l-0.6,1.4c-0.3-0.1-0.5-0.1-0.8-0.2c-0.3-0.1-0.6-0.1-0.9-0.1c-0.7,0-1.2,0.1-1.5,0.3
		c-0.3,0.2-0.5,0.6-0.5,1.1v0.3h6.2v6.9H214z M201.8,77.9l-0.7,0c-0.4,0-0.7,0-1,0.1c-0.3,0-0.5,0.1-0.6,0.2
		c-0.2,0.1-0.3,0.2-0.3,0.3c-0.1,0.1-0.1,0.2-0.1,0.3c0,0.3,0.1,0.5,0.4,0.6c0.3,0.1,0.6,0.2,0.9,0.2s0.6-0.1,0.9-0.2
		c0.3-0.1,0.5-0.3,0.6-0.4V77.9z M196.7,74.5c0.6-0.2,1.2-0.4,1.9-0.6c0.7-0.1,1.4-0.2,2.2-0.2c1.2,0,2.2,0.2,3,0.6
		c0.8,0.4,1.1,1.1,1.1,2v4.5h-2.4l-0.3-0.7h-0.1c-0.3,0.3-0.7,0.5-1.2,0.6c-0.5,0.2-1.1,0.2-1.7,0.2c-0.6,0-1.1-0.1-1.5-0.2
		c-0.4-0.1-0.8-0.3-1.1-0.5c-0.3-0.2-0.5-0.4-0.6-0.7c-0.1-0.3-0.2-0.5-0.2-0.8c0-0.4,0.1-0.8,0.4-1c0.3-0.3,0.6-0.5,1-0.7
		c0.4-0.2,1-0.3,1.5-0.4c0.6-0.1,1.2-0.1,1.9-0.1h1v-0.4c0-0.3-0.1-0.5-0.4-0.6c-0.3-0.1-0.6-0.2-1.1-0.2c-0.4,0-0.8,0-1.2,0.1
		c-0.4,0.1-0.8,0.2-1.3,0.4L196.7,74.5z M188.5,80.8v-6.9h2.4l0.3,1.2c0.1-0.2,0.3-0.3,0.5-0.5c0.2-0.2,0.4-0.3,0.6-0.4
		s0.5-0.2,0.9-0.3c0.3-0.1,0.7-0.1,1.1-0.1c0.3,0,0.6,0,0.8,0.1c0.3,0.1,0.5,0.1,0.6,0.2l-0.5,1.7c-0.2-0.1-0.3-0.1-0.6-0.2
		c-0.2,0-0.5-0.1-0.9-0.1c-0.6,0-1.2,0.1-1.6,0.4c-0.4,0.3-0.6,0.8-0.6,1.5v3.5H188.5z M186.6,75.5h-2.6v2.9c0,0.3,0.1,0.5,0.3,0.7
		c0.2,0.1,0.5,0.2,0.8,0.2c0.3,0,0.6,0,0.8-0.1c0.3,0,0.5-0.1,0.6-0.2l0.5,1.5c-0.2,0.1-0.6,0.2-1.1,0.3c-0.5,0.1-1,0.1-1.5,0.1
		c-1.3,0-2.2-0.2-2.7-0.5c-0.5-0.3-0.8-0.9-0.8-1.6v-3.3h-1.6v-1.5h1.6v-2.1h3.1v2.1h2.6V75.5z M173.2,78.2h-3.7v-1.3h3.7V78.2z
		 M162.8,75.5h-2.6v2.9c0,0.3,0.1,0.5,0.3,0.7c0.2,0.1,0.5,0.2,0.8,0.2c0.3,0,0.6,0,0.8-0.1c0.3,0,0.5-0.1,0.6-0.2l0.5,1.5
		c-0.2,0.1-0.6,0.2-1.1,0.3c-0.5,0.1-1,0.1-1.5,0.1c-1.3,0-2.2-0.2-2.7-0.5c-0.5-0.3-0.8-0.9-0.8-1.6v-3.3h-1.6v-1.5h1.6v-2.1h3.1
		v2.1h2.6V75.5z M151.6,76.6c0-0.2,0-0.3-0.1-0.5c-0.1-0.2-0.1-0.3-0.3-0.4c-0.1-0.1-0.3-0.2-0.5-0.3c-0.2-0.1-0.4-0.1-0.7-0.1
		c-0.5,0-0.9,0.1-1.2,0.4c-0.3,0.2-0.5,0.6-0.6,1L151.6,76.6z M154.7,78h-6.5v0.1c0,0.5,0.3,0.8,0.8,1.1c0.5,0.2,1.2,0.3,2,0.3
		c0.6,0,1.1,0,1.5-0.1c0.4-0.1,0.8-0.2,1.1-0.3l0.6,1.5c-0.4,0.1-0.9,0.2-1.4,0.3c-0.6,0.1-1.3,0.1-2.1,0.1c-0.8,0-1.5-0.1-2.1-0.2
		c-0.7-0.1-1.3-0.4-1.8-0.6c-0.5-0.3-0.9-0.7-1.2-1.1c-0.3-0.4-0.4-1-0.4-1.6c0-0.5,0.1-1.1,0.4-1.5c0.2-0.5,0.6-0.8,1-1.2
		c0.4-0.3,1-0.6,1.6-0.8c0.6-0.2,1.3-0.3,2.1-0.3c1.4,0,2.5,0.3,3.3,0.9c0.8,0.6,1.2,1.4,1.2,2.5V78z M136.8,80.8h-3.1v-6.9h2.4
		l0.4,0.9c0.4-0.3,0.9-0.6,1.5-0.8c0.6-0.2,1.2-0.3,1.8-0.3c1.1,0,2,0.2,2.6,0.6c0.6,0.4,0.9,1,0.9,1.9v4.6h-3.1v-4.4
		c0-0.3-0.1-0.6-0.3-0.8c-0.2-0.2-0.6-0.3-1-0.3c-0.3,0-0.7,0.1-1.1,0.2c-0.4,0.1-0.7,0.3-1,0.5V80.8z M130.5,78.8
		c0.5,0,0.8,0.1,1.1,0.3c0.3,0.2,0.4,0.5,0.4,0.8c0,0.3-0.1,0.6-0.4,0.8c-0.3,0.2-0.7,0.3-1.1,0.3c-0.5,0-0.8-0.1-1.1-0.3
		c-0.3-0.2-0.4-0.5-0.4-0.8c0-0.3,0.1-0.6,0.4-0.8C129.7,78.9,130.1,78.8,130.5,78.8z M124.4,77.9l-0.7,0c-0.4,0-0.7,0-1,0.1
		c-0.3,0-0.5,0.1-0.6,0.2c-0.2,0.1-0.3,0.2-0.3,0.3c-0.1,0.1-0.1,0.2-0.1,0.3c0,0.3,0.1,0.5,0.4,0.6c0.3,0.1,0.6,0.2,0.9,0.2
		s0.6-0.1,0.9-0.2c0.3-0.1,0.5-0.3,0.6-0.4V77.9z M119.3,74.5c0.6-0.2,1.2-0.4,1.9-0.6c0.7-0.1,1.4-0.2,2.2-0.2c1.2,0,2.2,0.2,3,0.6
		c0.8,0.4,1.1,1.1,1.1,2v4.5h-2.4l-0.3-0.7h-0.1c-0.3,0.3-0.7,0.5-1.2,0.6c-0.5,0.2-1.1,0.2-1.7,0.2c-0.6,0-1.1-0.1-1.5-0.2
		c-0.4-0.1-0.8-0.3-1.1-0.5c-0.3-0.2-0.5-0.4-0.6-0.7c-0.1-0.3-0.2-0.5-0.2-0.8c0-0.4,0.1-0.8,0.4-1c0.3-0.3,0.6-0.5,1-0.7
		c0.4-0.2,1-0.3,1.5-0.4c0.6-0.1,1.2-0.1,1.9-0.1h1v-0.4c0-0.3-0.1-0.5-0.4-0.6c-0.3-0.1-0.6-0.2-1.1-0.2c-0.4,0-0.8,0-1.2,0.1
		c-0.4,0.1-0.8,0.2-1.3,0.4L119.3,74.5z M110.8,78.6v2.2h-3.1V70.5h3.1v6l3.1-2.6h3.7l-3.8,2.9l3.9,4h-3.6l-2.6-2.8L110.8,78.6z
		 M102,80.8v-5.4h-3.1v5.4h-3.1v-5.4h-1.5v-1.5h1.5v-0.6c0-0.5,0.1-0.9,0.3-1.2c0.2-0.4,0.5-0.6,0.8-0.9c0.4-0.2,0.8-0.4,1.3-0.5
		c0.5-0.1,1.1-0.2,1.7-0.2c0.6,0,1.1,0.1,1.7,0.1c0.5,0.1,1,0.2,1.4,0.4l-0.6,1.4c-0.3-0.1-0.5-0.1-0.8-0.2
		c-0.3-0.1-0.6-0.1-0.9-0.1c-0.7,0-1.2,0.1-1.5,0.3c-0.3,0.2-0.5,0.6-0.5,1.1v0.3h6.2v6.9H102z M89.9,77.9l-0.7,0
		c-0.4,0-0.7,0-1,0.1c-0.3,0-0.5,0.1-0.6,0.2c-0.2,0.1-0.3,0.2-0.3,0.3c-0.1,0.1-0.1,0.2-0.1,0.3c0,0.3,0.1,0.5,0.4,0.6
		c0.3,0.1,0.6,0.2,0.9,0.2c0.3,0,0.6-0.1,0.9-0.2c0.3-0.1,0.5-0.3,0.6-0.4V77.9z M84.7,74.5c0.6-0.2,1.2-0.4,1.9-0.6
		c0.7-0.1,1.4-0.2,2.2-0.2c1.2,0,2.2,0.2,3,0.6c0.8,0.4,1.1,1.1,1.1,2v4.5h-2.4l-0.3-0.7h-0.1c-0.3,0.3-0.7,0.5-1.2,0.6
		C88.6,80.9,88,81,87.4,81c-0.6,0-1.1-0.1-1.5-0.2c-0.4-0.1-0.8-0.3-1.1-0.5c-0.3-0.2-0.5-0.4-0.6-0.7C84,79.4,84,79.1,84,78.8
		c0-0.4,0.1-0.8,0.4-1c0.3-0.3,0.6-0.5,1-0.7c0.4-0.2,0.9-0.3,1.5-0.4c0.6-0.1,1.2-0.1,1.9-0.1h1v-0.4c0-0.3-0.1-0.5-0.4-0.6
		c-0.3-0.1-0.6-0.2-1.1-0.2c-0.4,0-0.8,0-1.2,0.1c-0.4,0.1-0.8,0.2-1.3,0.4L84.7,74.5z M76.6,80.8v-6.9H79l0.3,1.2
		c0.1-0.2,0.3-0.3,0.5-0.5c0.2-0.2,0.4-0.3,0.6-0.4s0.5-0.2,0.9-0.3c0.3-0.1,0.7-0.1,1.1-0.1c0.3,0,0.6,0,0.8,0.1
		c0.3,0.1,0.5,0.1,0.6,0.2l-0.5,1.7c-0.2-0.1-0.3-0.1-0.6-0.2c-0.2,0-0.5-0.1-0.9-0.1c-0.6,0-1.2,0.1-1.6,0.4
		c-0.4,0.3-0.6,0.8-0.6,1.5v3.5H76.6z M74.7,75.5h-2.6v2.9c0,0.3,0.1,0.5,0.3,0.7c0.2,0.1,0.5,0.2,0.8,0.2c0.3,0,0.6,0,0.8-0.1
		c0.3,0,0.5-0.1,0.6-0.2l0.5,1.5c-0.2,0.1-0.6,0.2-1.1,0.3c-0.5,0.1-1,0.1-1.5,0.1c-1.3,0-2.2-0.2-2.7-0.5c-0.5-0.3-0.8-0.9-0.8-1.6
		v-3.3h-1.6v-1.5h1.6v-2.1h3.1v2.1h2.6V75.5z"/>
</g>
</svg>
