<?xml version="1.0" encoding="utf-8"?>
<!-- Generator: Adobe Illustrator 24.0.0, SVG Export Plug-In . SVG Version: 6.00 Build 0)  -->
<svg version="1.1" id="Layer_1" xmlns="http://www.w3.org/2000/svg" xmlns:xlink="http://www.w3.org/1999/xlink" x="0px" y="0px"
	 viewBox="0 0 365.1 100.4" style="enable-background:new 0 0 365.1 100.4;" xml:space="preserve">
<style type="text/css">
	.st0{fill-rule:evenodd;clip-rule:evenodd;fill:#0095DA;}
	.st1{fill-rule:evenodd;clip-rule:evenodd;fill:#BBBDC0;}
	.st2{fill-rule:evenodd;clip-rule:evenodd;fill:#FFFFFF;}
	.st3{fill-rule:evenodd;clip-rule:evenodd;fill:#ED1C24;}
</style>
<g>
	<rect class="st0" width="365.1" height="82.5"/>
	<path class="st1" d="M278.6,98v2.2h-3.1V89.9h3.1v6l3.1-2.6h3.7l-3.8,2.9l3.9,4H282l-2.6-2.8 M260.6,100.2h-3.1v-6.9h2.4l0.4,0.9
		c0.4-0.3,0.9-0.6,1.5-0.8c0.5-0.2,1.1-0.3,1.8-0.3c1.4,0,2.4,0.4,2.9,1.1c0.4-0.3,0.9-0.6,1.5-0.8c0.6-0.2,1.2-0.3,1.8-0.3
		c1.1,0,1.9,0.2,2.5,0.6c0.6,0.4,0.9,1,0.9,1.8v4.7H270v-4.5c0-0.3-0.1-0.5-0.3-0.7c-0.2-0.2-0.5-0.3-0.9-0.3c-0.3,0-0.7,0.1-1,0.2
		c-0.4,0.1-0.7,0.3-0.9,0.5v4.8h-3.1v-4.5c0-0.3-0.1-0.5-0.3-0.7c-0.2-0.2-0.5-0.3-0.9-0.3c-0.3,0-0.7,0.1-1,0.2
		c-0.4,0.1-0.7,0.3-0.9,0.5V100.2z M254.3,98.2c0.5,0,0.8,0.1,1.1,0.3c0.3,0.2,0.4,0.5,0.4,0.8s-0.1,0.6-0.4,0.8
		c-0.3,0.2-0.7,0.3-1.1,0.3c-0.5,0-0.8-0.1-1.1-0.3c-0.3-0.2-0.4-0.5-0.4-0.8s0.1-0.6,0.4-0.8C253.5,98.3,253.9,98.2,254.3,98.2z
		 M248.2,97.2l-0.7,0c-0.4,0-0.7,0-1,0.1c-0.3,0-0.5,0.1-0.6,0.2c-0.2,0.1-0.3,0.2-0.3,0.3c-0.1,0.1-0.1,0.2-0.1,0.3
		c0,0.3,0.1,0.5,0.4,0.6c0.3,0.1,0.6,0.2,0.9,0.2c0.3,0,0.6-0.1,0.9-0.2c0.3-0.1,0.5-0.3,0.6-0.4V97.2z M243.1,93.9
		c0.6-0.2,1.2-0.4,1.9-0.6c0.7-0.1,1.5-0.2,2.2-0.2c1.2,0,2.2,0.2,3,0.6c0.8,0.4,1.1,1.1,1.1,2v4.5H249l-0.3-0.7h-0.1
		c-0.3,0.3-0.7,0.5-1.2,0.6c-0.5,0.2-1.1,0.2-1.7,0.2c-0.6,0-1.1-0.1-1.5-0.2c-0.4-0.1-0.8-0.3-1-0.5c-0.3-0.2-0.5-0.4-0.6-0.7
		c-0.1-0.3-0.2-0.5-0.2-0.8c0-0.4,0.1-0.8,0.4-1c0.3-0.3,0.6-0.5,1-0.7c0.4-0.2,1-0.3,1.5-0.4c0.6-0.1,1.2-0.1,1.9-0.1h1v-0.4
		c0-0.3-0.1-0.5-0.4-0.6c-0.3-0.1-0.6-0.2-1.1-0.2c-0.4,0-0.8,0-1.2,0.1c-0.4,0.1-0.8,0.2-1.3,0.4L243.1,93.9z M234.6,98v2.2h-3.1
		V89.9h3.1v6l3.1-2.6h3.7l-3.8,2.9l3.9,4H238l-2.6-2.8L234.6,98z M225.8,100.2v-5.4h-3.1v5.4h-3.1v-5.4h-1.5v-1.5h1.5v-0.6
		c0-0.5,0.1-0.9,0.3-1.2c0.2-0.3,0.5-0.6,0.8-0.9c0.4-0.2,0.8-0.4,1.3-0.5c0.5-0.1,1.1-0.2,1.7-0.2c0.6,0,1.1,0,1.7,0.1
		c0.5,0.1,1,0.2,1.4,0.4l-0.6,1.4c-0.3-0.1-0.5-0.1-0.8-0.2c-0.3-0.1-0.6-0.1-0.9-0.1c-0.7,0-1.2,0.1-1.5,0.3
		c-0.3,0.2-0.5,0.6-0.5,1.1v0.3h6.2v6.9H225.8z M213.7,97.2l-0.7,0c-0.4,0-0.7,0-1,0.1c-0.3,0-0.5,0.1-0.6,0.2
		c-0.2,0.1-0.3,0.2-0.3,0.3c-0.1,0.1-0.1,0.2-0.1,0.3c0,0.3,0.1,0.5,0.4,0.6c0.3,0.1,0.6,0.2,0.9,0.2c0.3,0,0.6-0.1,0.9-0.2
		c0.3-0.1,0.5-0.3,0.6-0.4V97.2z M208.5,93.9c0.6-0.2,1.2-0.4,1.9-0.6c0.7-0.1,1.5-0.2,2.2-0.2c1.2,0,2.2,0.2,3,0.6
		c0.8,0.4,1.1,1.1,1.1,2v4.5h-2.4l-0.3-0.7h-0.1c-0.3,0.3-0.7,0.5-1.2,0.6c-0.5,0.2-1.1,0.2-1.7,0.2c-0.6,0-1.1-0.1-1.5-0.2
		c-0.4-0.1-0.8-0.3-1.1-0.5c-0.3-0.2-0.5-0.4-0.6-0.7c-0.1-0.3-0.2-0.5-0.2-0.8c0-0.4,0.1-0.8,0.4-1c0.3-0.3,0.6-0.5,1-0.7
		c0.4-0.2,1-0.3,1.5-0.4c0.6-0.1,1.2-0.1,1.9-0.1h1v-0.4c0-0.3-0.1-0.5-0.4-0.6c-0.3-0.1-0.6-0.2-1.1-0.2c-0.4,0-0.8,0-1.2,0.1
		c-0.4,0.1-0.9,0.2-1.3,0.4L208.5,93.9z M200.4,100.2v-6.9h2.4l0.3,1.2c0.1-0.2,0.3-0.3,0.5-0.5c0.2-0.2,0.4-0.3,0.6-0.4
		s0.5-0.2,0.9-0.3c0.3-0.1,0.7-0.1,1.1-0.1c0.3,0,0.6,0,0.8,0.1c0.3,0.1,0.5,0.1,0.6,0.2l-0.5,1.7c-0.2-0.1-0.3-0.1-0.6-0.2
		c-0.2,0-0.5-0.1-0.9-0.1c-0.6,0-1.2,0.1-1.6,0.4c-0.4,0.3-0.6,0.8-0.6,1.5v3.5H200.4z M198.5,94.8H196v2.9c0,0.3,0.1,0.5,0.3,0.7
		c0.2,0.1,0.5,0.2,0.8,0.2c0.3,0,0.6,0,0.8-0.1c0.3,0,0.5-0.1,0.6-0.2l0.5,1.5c-0.2,0.1-0.6,0.2-1.1,0.3c-0.5,0.1-1,0.1-1.5,0.1
		c-1.3,0-2.2-0.2-2.7-0.5c-0.5-0.3-0.8-0.9-0.8-1.6v-3.3h-1.6v-1.5h1.6v-2.1h3.1v2.1h2.6V94.8z M185.1,97.5h-3.7v-1.3h3.7V97.5z
		 M174.7,94.8h-2.6v2.9c0,0.3,0.1,0.5,0.3,0.7c0.2,0.1,0.5,0.2,0.8,0.2c0.3,0,0.6,0,0.8-0.1c0.3,0,0.5-0.1,0.6-0.2l0.5,1.5
		c-0.2,0.1-0.6,0.2-1.1,0.3c-0.5,0.1-1,0.1-1.5,0.1c-1.3,0-2.2-0.2-2.7-0.5c-0.5-0.3-0.8-0.9-0.8-1.6v-3.3h-1.6v-1.5h1.6v-2.1h3.1
		v2.1h2.6V94.8z M163.4,95.9c0-0.2,0-0.3-0.1-0.5c-0.1-0.2-0.1-0.3-0.3-0.4c-0.1-0.1-0.3-0.2-0.5-0.3c-0.2-0.1-0.4-0.1-0.7-0.1
		c-0.5,0-0.9,0.1-1.2,0.4c-0.3,0.2-0.5,0.6-0.6,1L163.4,95.9z M166.6,97.4h-6.5v0.1c0,0.5,0.3,0.8,0.8,1.1c0.5,0.2,1.2,0.3,2,0.3
		c0.6,0,1.1,0,1.5-0.1c0.4-0.1,0.8-0.2,1.1-0.3l0.6,1.5c-0.4,0.1-0.9,0.2-1.4,0.3c-0.6,0.1-1.3,0.1-2.1,0.1c-0.8,0-1.5-0.1-2.1-0.2
		c-0.7-0.1-1.3-0.4-1.8-0.6c-0.5-0.3-0.9-0.7-1.2-1.1c-0.3-0.4-0.4-1-0.4-1.6c0-0.5,0.1-1.1,0.4-1.5c0.2-0.5,0.6-0.8,1-1.2
		c0.4-0.3,1-0.6,1.6-0.8c0.6-0.2,1.3-0.3,2.1-0.3c1.4,0,2.5,0.3,3.3,0.9c0.8,0.6,1.2,1.4,1.2,2.5V97.4z M148.7,100.2h-3.1v-6.9h2.4
		l0.4,0.9c0.4-0.3,0.9-0.6,1.5-0.8c0.6-0.2,1.2-0.3,1.8-0.3c1.1,0,2,0.2,2.6,0.6c0.6,0.4,0.9,1,0.9,1.9v4.6h-3.1v-4.4
		c0-0.3-0.1-0.6-0.3-0.8c-0.2-0.2-0.6-0.3-1-0.3c-0.3,0-0.7,0.1-1.1,0.2c-0.4,0.1-0.7,0.3-1,0.5V100.2z M142.4,98.2
		c0.5,0,0.8,0.1,1.1,0.3c0.3,0.2,0.4,0.5,0.4,0.8s-0.1,0.6-0.4,0.8c-0.3,0.2-0.7,0.3-1.1,0.3c-0.5,0-0.8-0.1-1.1-0.3
		c-0.3-0.2-0.4-0.5-0.4-0.8s0.1-0.6,0.4-0.8C141.6,98.3,142,98.2,142.4,98.2z M136.3,97.2l-0.7,0c-0.4,0-0.7,0-1,0.1
		c-0.3,0-0.5,0.1-0.6,0.2c-0.2,0.1-0.3,0.2-0.3,0.3c-0.1,0.1-0.1,0.2-0.1,0.3c0,0.3,0.1,0.5,0.4,0.6c0.3,0.1,0.6,0.2,0.9,0.2
		c0.3,0,0.6-0.1,0.9-0.2c0.3-0.1,0.5-0.3,0.6-0.4V97.2z M131.2,93.9c0.6-0.2,1.2-0.4,1.9-0.6c0.7-0.1,1.4-0.2,2.2-0.2
		c1.2,0,2.2,0.2,3,0.6c0.8,0.4,1.1,1.1,1.1,2v4.5H137l-0.3-0.7h-0.1c-0.3,0.3-0.7,0.5-1.2,0.6c-0.5,0.2-1.1,0.2-1.7,0.2
		c-0.6,0-1.1-0.1-1.5-0.2c-0.4-0.1-0.8-0.3-1.1-0.5c-0.3-0.2-0.5-0.4-0.6-0.7c-0.1-0.3-0.2-0.5-0.2-0.8c0-0.4,0.1-0.8,0.4-1
		c0.3-0.3,0.6-0.5,1-0.7c0.4-0.2,1-0.3,1.5-0.4c0.6-0.1,1.2-0.1,1.9-0.1h1v-0.4c0-0.3-0.1-0.5-0.4-0.6c-0.3-0.1-0.6-0.2-1.1-0.2
		c-0.4,0-0.8,0-1.2,0.1c-0.4,0.1-0.8,0.2-1.3,0.4L131.2,93.9z M122.7,98v2.2h-3.1V89.9h3.1v6l3.1-2.6h3.7l-3.8,2.9l3.9,4h-3.6
		l-2.6-2.8L122.7,98z M113.9,100.2v-5.4h-3.1v5.4h-3.1v-5.4h-1.5v-1.5h1.5v-0.6c0-0.5,0.1-0.9,0.3-1.2c0.2-0.3,0.5-0.6,0.8-0.9
		c0.4-0.2,0.8-0.4,1.3-0.5c0.5-0.1,1.1-0.2,1.7-0.2c0.6,0,1.1,0,1.7,0.1c0.5,0.1,1,0.2,1.4,0.4l-0.6,1.4c-0.3-0.1-0.5-0.1-0.8-0.2
		c-0.3-0.1-0.6-0.1-0.9-0.1c-0.7,0-1.2,0.1-1.5,0.3c-0.3,0.2-0.5,0.6-0.5,1.1v0.3h6.2v6.9H113.9z M101.8,97.2l-0.7,0
		c-0.4,0-0.7,0-1,0.1c-0.3,0-0.5,0.1-0.6,0.2c-0.2,0.1-0.3,0.2-0.3,0.3C99.1,97.9,99,98,99,98.1c0,0.3,0.1,0.5,0.4,0.6
		c0.3,0.1,0.6,0.2,0.9,0.2c0.3,0,0.6-0.1,0.9-0.2c0.3-0.1,0.5-0.3,0.6-0.4V97.2z M96.6,93.9c0.6-0.2,1.2-0.4,1.9-0.6
		c0.7-0.1,1.4-0.2,2.2-0.2c1.2,0,2.2,0.2,3,0.6c0.8,0.4,1.1,1.1,1.1,2v4.5h-2.4l-0.3-0.7h-0.1c-0.3,0.3-0.7,0.5-1.2,0.6
		c-0.5,0.2-1.1,0.2-1.7,0.2c-0.6,0-1.1-0.1-1.5-0.2c-0.4-0.1-0.8-0.3-1.1-0.5c-0.3-0.2-0.5-0.4-0.6-0.7c-0.1-0.3-0.2-0.5-0.2-0.8
		c0-0.4,0.1-0.8,0.4-1c0.3-0.3,0.6-0.5,1-0.7c0.4-0.2,1-0.3,1.5-0.4c0.6-0.1,1.2-0.1,1.9-0.1h1v-0.4c0-0.3-0.1-0.5-0.4-0.6
		c-0.3-0.1-0.6-0.2-1.1-0.2c-0.4,0-0.8,0-1.2,0.1c-0.4,0.1-0.8,0.2-1.3,0.4L96.6,93.9z M88.5,100.2v-6.9h2.4l0.3,1.2
		c0.1-0.2,0.3-0.3,0.5-0.5c0.2-0.2,0.4-0.3,0.6-0.4s0.5-0.2,0.9-0.3c0.3-0.1,0.7-0.1,1.1-0.1c0.3,0,0.6,0,0.8,0.1
		c0.3,0.1,0.5,0.1,0.6,0.2l-0.5,1.7c-0.2-0.1-0.3-0.1-0.6-0.2c-0.2,0-0.5-0.1-0.9-0.1c-0.6,0-1.2,0.1-1.6,0.4
		c-0.4,0.3-0.6,0.8-0.6,1.5v3.5H88.5z M86.6,94.8H84v2.9c0,0.3,0.1,0.5,0.3,0.7c0.2,0.1,0.5,0.2,0.8,0.2c0.3,0,0.6,0,0.8-0.1
		c0.3,0,0.5-0.1,0.6-0.2l0.5,1.5c-0.2,0.1-0.6,0.2-1.1,0.3c-0.5,0.1-1,0.1-1.5,0.1c-1.3,0-2.2-0.2-2.7-0.5c-0.5-0.3-0.8-0.9-0.8-1.6
		v-3.3h-1.6v-1.5H81v-2.1H84v2.1h2.6V94.8z"/>
	<g>
		<path class="st2" d="M334,66.2c-0.5-0.2-1.3-0.3-2.4-0.3h-0.8c-0.9,0-1.5-0.5-1.6-1.4c-0.2-0.9-0.2-2.3-0.2-4.2V43.6
			c0-2.6-0.6-4.6-1.8-6.1c-1.2-1.5-2.7-2.7-4.6-3.5c-1.9-0.8-4.1-1.3-6.5-1.6c-2.4-0.2-4.9-0.4-7.4-0.4c-3.4,0-6.5,0.2-9.2,0.5
			c-2.8,0.4-5.2,0.9-7.2,1.6c-2,0.7-3.5,1.7-4.6,2.8c-1.1,1.1-1.7,2.5-1.7,4.1c0.1,1.2,0.4,2.3,1,3.1c0.6,0.8,1.3,1.4,2.2,1.9
			c0.9,0.5,1.8,0.8,2.9,0.9c1,0.2,2,0.2,3,0.2c0.9,0,1.8-0.1,2.9-0.2c1.1-0.2,2.1-0.5,3-0.9c0.9-0.5,1.7-1.1,2.3-1.9
			c0.6-0.8,0.9-1.8,0.9-3.1c0-1-0.2-1.8-0.6-2.4c-0.4-0.7-0.9-1.1-1.3-1.5c1.2-0.7,2.5-1.1,3.7-1.1c0.7,0,1.3,0.2,1.8,0.5
			c0.5,0.4,0.9,0.8,1.1,1.4c0.2,0.6,0.4,1.3,0.5,2c0.1,0.7,0.2,1.5,0.2,2.2V46c-1.1,0.5-2.5,0.9-4.2,1.2c-1.7,0.3-3.6,0.6-5.5,1
			c-2,0.3-4,0.8-6,1.3c-2,0.5-3.8,1.3-5.5,2.2c-1.6,0.9-3,2.1-4,3.5c-1,1.4-1.5,3.1-1.5,5.3c0,2.3,0.5,4.2,1.5,5.5
			c1,1.4,2.2,2.4,3.6,3.1c1.4,0.7,2.9,1.2,4.5,1.4c1.6,0.2,3,0.3,4.2,0.3c4,0,7.1-0.5,9.2-1.6c2.1-1.1,3.7-2.4,4.7-4
			c0.2,1.3,0.8,2.3,1.7,3c0.9,0.7,1.9,1.2,3.1,1.6c1.2,0.4,2.5,0.6,3.8,0.7c1.3,0.1,2.5,0.1,3.6,0.1c1,0,2.3,0,3.7,0
			c1.4,0,2.7-0.1,4-0.3c1.2-0.2,2.3-0.5,3.2-0.9c0.9-0.4,1.3-0.9,1.3-1.5C334.7,66.9,334.4,66.4,334,66.2z M309.3,58.3
			c0,0.9-0.1,1.7-0.4,2.4c-0.3,0.7-0.7,1.4-1.1,1.9c-0.4,0.5-0.9,0.9-1.4,1.2c-0.5,0.3-1,0.4-1.5,0.4c-0.3,0-0.6,0-0.9-0.1
			c-0.3-0.1-0.6-0.2-0.8-0.6c-0.2-0.3-0.5-0.9-0.7-1.6c-0.2-0.7-0.3-1.7-0.3-3.1v-0.9c0-1.4,0.1-2.6,0.4-3.4
			c0.2-0.9,0.6-1.6,1.2-2.1c0.5-0.5,1.3-1,2.2-1.4c0.9-0.4,2.1-0.8,3.4-1.3V58.3z M271.9,36.8c-1.8,0-3.3,0.3-4.4,0.8
			c-1.2,0.5-2.5,1.4-3.9,2.7l14.7,25c0.1,0.2,0.3,0.4,0.6,0.5c0.3,0.1,0.6,0.2,0.9,0.2c0.3,0.1,0.6,0.1,0.8,0.1c0.2,0,0.4,0,0.4,0
			c0.9,0.1,1.5,0.2,1.9,0.4c0.4,0.2,0.6,0.7,0.6,1.5c0,0.8-0.2,1.2-0.7,1.4c-0.5,0.2-1.3,0.3-2.4,0.3h-19.1c-1.1,0-2-0.1-2.6-0.4
			c-0.6-0.3-1.1-0.8-1.5-1.5l-8.8-14.9l-1.7,1.2v6c0,1.9,0.1,3.3,0.2,4.3c0.2,1,0.7,1.4,1.6,1.4c0.3,0,0.7,0.1,1.1,0.3
			c0.4,0.2,0.6,0.7,0.6,1.7c0,0.9-0.2,1.5-0.6,1.7c-0.4,0.2-1,0.3-1.8,0.3h-23.3c-1.1,0-1.9-0.1-2.4-0.3c-0.5-0.2-0.7-0.7-0.7-1.7
			c0-0.9,0.2-1.5,0.7-1.7c0.5-0.2,1.3-0.3,2.4-0.3h0.8c0.9,0,1.5-0.5,1.6-1.4c0.2-1,0.2-2.4,0.2-4.3V24.2c0-1.4-0.1-2.4-0.3-3.2
			c-0.2-0.8-0.8-1.3-1.9-1.6c-1.2-0.3-2-0.7-2.2-1.2c-0.2-0.5-0.4-0.9-0.4-1.3c0-0.7,0.6-1.1,1.9-1.2c3.8-0.5,7-0.9,9.7-1.2
			c2.6-0.3,4.8-0.5,6.4-0.7c1.7-0.2,2.9-0.3,3.6-0.4c0.8-0.1,1.2-0.1,1.2-0.1c0.6,0,1.1,0.2,1.3,0.6c0.2,0.4,0.3,1,0.3,1.7v33.7
			l9-7.1c1-0.8,1.7-1.5,2-2.2c0.3-0.7,0.4-1.2,0.4-1.7c0-1-0.5-1.5-1.5-1.5c-1.1,0-1.9-0.1-2.4-0.3c-0.5-0.2-0.7-0.7-0.7-1.7
			c0-0.8,0.2-1.3,0.5-1.5c0.4-0.3,1-0.4,1.9-0.4h17.7c1.1,0,1.9,0.1,2.4,0.3c0.5,0.2,0.7,0.7,0.7,1.7c0,0.9-0.2,1.5-0.7,1.7
			c-0.5,0.2-1.3,0.3-2.4,0.3H271.9z M219,67.8c0,0.9-0.2,1.5-0.7,1.7c-0.5,0.2-1.3,0.3-2.4,0.3h-23.6c-1.1,0-1.9-0.1-2.4-0.3
			c-0.5-0.2-0.7-0.7-0.7-1.7c0-0.9,0.2-1.5,0.7-1.7c0.5-0.2,1.3-0.3,2.4-0.3h-0.5c0.9,0,1.5-0.5,1.6-1.4c0.2-1,0.2-2.4,0.2-4.3V42.3
			c0-1.4-0.1-2.5-0.3-3.5c-0.2-1-0.8-1.6-1.9-1.9H182v23.3c0,1.9,0.1,3.3,0.2,4.3c0.2,1,0.7,1.4,1.6,1.4c1.1,0,1.9,0.1,2.4,0.3
			c0.5,0.2,0.7,0.7,0.7,1.7c0,0.9-0.2,1.5-0.7,1.7c-0.5,0.2-1.3,0.3-2.4,0.3h-24.1c-1.1,0-1.9-0.1-2.4-0.3c-0.5-0.2-0.7-0.7-0.7-1.7
			c0-0.9,0.2-1.5,0.7-1.7c0.5-0.2,1.3-0.3,2.4-0.3h0.8c0.9,0,1.5-0.5,1.6-1.4c0.2-1,0.2-2.4,0.2-4.3V36.9h-2.7
			c-1.1,0-1.9-0.1-2.4-0.3c-0.5-0.2-0.7-0.7-0.7-1.7c0-0.9,0.2-1.5,0.7-1.7c0.5-0.2,1.3-0.3,2.4-0.3h2.7v-2.2c0-2.7,0.3-5.1,1-7.5
			c0.7-2.3,2.1-4.3,4.2-6c2.1-1.7,5.1-3.1,9-4c3.9-1,9.1-1.5,15.6-1.5c3.3,0,6.3,0.1,9.1,0.3c2.7,0.2,5.1,0.6,7,1.1
			c1.9,0.6,3.4,1.4,4.4,2.4c0.1,0.1,0.2,0.3,0.4,0.4c0,0,0.1,0.1,0.1,0.1c0.1,0.1,0.1,0.2,0.2,0.3c0,0,0,0,0,0
			c0.7,0.9,1.1,2.1,1.1,3.5c0,1.5-0.4,2.7-1.1,3.7c-0.3,0.4-0.6,0.9-0.9,1.2c-0.1,0.1-0.3,0.2-0.4,0.3c-0.5,0.4-1,0.8-1.6,1.1
			c-1.1,0.6-2.4,1-3.8,1.3c-1.4,0.3-2.7,0.4-4,0.4c-1.3,0-2.6-0.1-4-0.4c-1.4-0.3-2.6-0.7-3.8-1.3c-1.1-0.6-2.1-1.4-2.9-2.4
			c-0.8-1-1.1-2.3-1.1-3.8c0-1.5,0.3-2.7,0.9-3.6c-0.4,0-0.8,0-1.2,0c-0.8,0-1.7,0.1-2.7,0.2c-1,0.1-1.9,0.4-2.8,0.8
			c-0.9,0.4-1.6,1-2.2,1.8c-0.6,0.8-0.9,1.9-0.9,3.3V33h28.1c1.1,0,1.9,0.1,2.4,0.3c0.5,0.2,0.7,0.7,0.7,1.7c0,0.1,0,0.1,0,0.1
			c0,0.2,0,0.3,0,0.5v24.6c0,1.9,0.1,3.3,0.2,4.3c0.2,1,0.7,1.4,1.6,1.4h0.8c1.1,0,1.9,0.1,2.4,0.3C218.7,66.4,219,66.9,219,67.8z
			 M153,66.2c-0.5-0.2-1.3-0.3-2.4-0.3h-0.8c-0.9,0-1.5-0.5-1.6-1.4c-0.2-0.9-0.2-2.3-0.2-4.2V43.6c0-2.6-0.6-4.6-1.8-6.1
			c-1.2-1.5-2.7-2.7-4.6-3.5c-1.9-0.8-4.1-1.3-6.5-1.6c-2.4-0.2-4.9-0.4-7.4-0.4c-3.4,0-6.4,0.2-9.2,0.5c-2.8,0.4-5.2,0.9-7.2,1.6
			c-2,0.7-3.5,1.7-4.6,2.8c-1.1,1.1-1.7,2.5-1.7,4.1c0.1,1.2,0.4,2.3,1,3.1c0.6,0.8,1.3,1.4,2.2,1.9c0.9,0.5,1.8,0.8,2.9,0.9
			c1,0.2,2,0.2,3,0.2c0.9,0,1.8-0.1,2.9-0.2c1.1-0.2,2.1-0.5,3-0.9c0.9-0.5,1.7-1.1,2.3-1.9c0.6-0.8,0.9-1.8,0.9-3.1
			c0-1-0.2-1.8-0.6-2.4c-0.4-0.7-0.9-1.1-1.3-1.5c1.2-0.7,2.5-1.1,3.7-1.1c0.7,0,1.3,0.2,1.8,0.5c0.5,0.4,0.9,0.8,1.1,1.4
			c0.2,0.6,0.4,1.3,0.5,2c0.1,0.7,0.2,1.5,0.2,2.2V46c-1.1,0.5-2.5,0.9-4.2,1.2c-1.7,0.3-3.6,0.6-5.5,1c-2,0.3-4,0.8-6,1.3
			c-2,0.5-3.8,1.3-5.5,2.2c-1.6,0.9-3,2.1-4,3.5c-1,1.4-1.5,3.1-1.5,5.3c0,2.3,0.5,4.2,1.5,5.5c1,1.4,2.2,2.4,3.6,3.1
			c1.4,0.7,2.9,1.2,4.5,1.4c1.6,0.2,3,0.3,4.2,0.3c4,0,7.1-0.5,9.2-1.6c2.1-1.1,3.7-2.4,4.7-4c0.2,1.3,0.8,2.3,1.7,3
			c0.9,0.7,1.9,1.2,3.1,1.6c1.2,0.4,2.5,0.6,3.8,0.7c1.3,0.1,2.5,0.1,3.6,0.1c1,0,2.3,0,3.7,0c1.4,0,2.7-0.1,4-0.3
			c1.2-0.2,2.3-0.5,3.2-0.9c0.9-0.4,1.3-0.9,1.3-1.5C153.7,66.9,153.5,66.4,153,66.2z M128.4,58.3c0,0.9-0.1,1.7-0.4,2.4
			c-0.3,0.7-0.7,1.4-1.1,1.9c-0.4,0.5-0.9,0.9-1.4,1.2c-0.5,0.3-1,0.4-1.5,0.4c-0.3,0-0.6,0-0.9-0.1c-0.3-0.1-0.6-0.2-0.8-0.6
			c-0.2-0.3-0.5-0.9-0.7-1.6c-0.2-0.7-0.3-1.7-0.3-3.1v-0.9c0-1.4,0.1-2.6,0.4-3.4c0.2-0.9,0.6-1.6,1.2-2.1c0.5-0.5,1.3-1,2.2-1.4
			c0.9-0.4,2.1-0.8,3.4-1.3V58.3z M79,40.5c-1.1,0.7-2,1.7-2.7,3.1c-0.7,1.4-1.1,3.2-1.1,5.4v11.2c0,1.9,0.1,3.3,0.2,4.3
			c0.2,1,0.7,1.4,1.6,1.4h0.8c1.1,0,1.9,0.1,2.4,0.3c0.5,0.2,0.7,0.7,0.7,1.7c0,0.9-0.2,1.5-0.7,1.7c-0.5,0.2-1.3,0.3-2.4,0.3H52.9
			c-1.1,0-1.9-0.1-2.4-0.3c-0.5-0.2-0.7-0.7-0.7-1.7c0-0.9,0.2-1.5,0.7-1.7c0.5-0.2,1.3-0.3,2.4-0.3h0.8c0.9,0,1.5-0.5,1.6-1.4
			c0.2-1,0.2-2.4,0.2-4.3V41.6c0-1.4-0.1-2.5-0.3-3.4c-0.2-0.9-0.8-1.4-1.9-1.4h-1.2c-0.5,0-0.9-0.2-1.1-0.6
			c-0.2-0.4-0.3-0.8-0.3-1.2c0-0.7,0.6-1.1,1.9-1.2c3.8-0.5,7-0.9,9.7-1.2s4.8-0.5,6.4-0.7c1.7-0.2,2.9-0.3,3.6-0.4
			c0.8-0.1,1.2-0.1,1.2-0.1c0.7,0,1.1,0.2,1.3,0.6c0.2,0.4,0.3,1,0.3,1.7v6.7c0.8-1.1,1.6-2.1,2.6-3.1c1-1,2.1-1.9,3.3-2.7
			c1.2-0.8,2.5-1.4,3.8-1.9c1.4-0.5,2.8-0.7,4.2-0.7h0.4c1.1,0,2.3,0.1,3.5,0.4c1.2,0.3,2.3,0.7,3.3,1.4c1,0.7,1.8,1.5,2.5,2.6
			c0.7,1.1,1,2.5,1,4.2c0,1.6-0.3,2.9-1,4c-0.7,1.1-1.5,1.9-2.5,2.6c-1,0.7-2.1,1.1-3.3,1.4c-1.2,0.3-2.4,0.4-3.5,0.4
			c-1.1,0-2.3-0.1-3.6-0.4c-1.2-0.3-2.4-0.7-3.4-1.4c-1-0.7-1.8-1.5-2.5-2.6C79.3,43.4,79,42.1,79,40.5z M17.3,36.8h-2.5
			c-1.1,0-1.9-0.1-2.4-0.3c-0.5-0.2-0.7-0.7-0.7-1.7c0-0.8,0.2-1.3,0.6-1.5c0.4-0.2,1.1-0.4,2.1-0.4c2.4-0.1,5.3-1.1,8.4-3.1
			c3.2-1.9,6.5-5.3,10.1-10.1c0.4-0.5,0.7-0.8,1-1c0.3-0.2,0.7-0.2,1.1-0.2c0.6,0,1.1,0.2,1.4,0.6c0.3,0.4,0.5,0.9,0.5,1.5v12.4h5.6
			c1.1,0,1.9,0.1,2.4,0.3c0.5,0.2,0.7,0.7,0.7,1.7c0,0.9-0.2,1.5-0.7,1.7c-0.5,0.2-1.3,0.3-2.4,0.3h-5.6v23c0,1.1,0.1,2.1,0.4,2.8
			c0.3,0.7,0.6,1.2,1,1.6c0.4,0.4,0.8,0.6,1.3,0.7c0.5,0.1,0.9,0.2,1.2,0.2c0.9,0,1.7-0.2,2.3-0.4c0.6-0.3,1.2-0.4,1.9-0.4
			c0.4,0,0.9,0.2,1.3,0.5c0.4,0.3,0.6,0.8,0.6,1.4c0,0.4-0.1,0.7-0.2,1.1c-0.2,0.4-0.5,0.7-0.9,0.9c-0.9,0.6-2.5,1.2-4.7,1.8
			c-2.2,0.6-5.1,0.9-8.6,0.9c-1.9,0-3.7-0.1-5.5-0.4C25,70,23.4,69.5,22,68.7c-1.4-0.8-2.5-1.8-3.4-3.3c-0.9-1.4-1.3-3.3-1.3-5.6
			V36.8z"/>
		<path class="st3" d="M338.2,61.8c0-1.6,0.3-2.9,1-3.9c0.7-1,1.5-1.9,2.5-2.5c1-0.6,2.1-1.1,3.4-1.3c1.2-0.3,2.4-0.4,3.6-0.4
			c1.1,0,2.3,0.1,3.6,0.4c1.2,0.3,2.4,0.7,3.4,1.3c1,0.6,1.8,1.5,2.5,2.5c0.7,1,1,2.3,1,3.9c0,1.5-0.3,2.8-1,3.8
			c-0.7,1-1.5,1.8-2.5,2.4c-1,0.6-2.1,1-3.4,1.3c-1.2,0.3-2.4,0.4-3.6,0.4c-1.1,0-2.3-0.1-3.6-0.4c-1.3-0.3-2.4-0.7-3.4-1.3
			c-1-0.6-1.8-1.4-2.5-2.4C338.5,64.6,338.2,63.3,338.2,61.8"/>
	</g>
</g>
</svg>
