<?xml version="1.0" encoding="utf-8"?>
<!-- Generator: Adobe Illustrator 24.0.0, SVG Export Plug-In . SVG Version: 6.00 Build 0)  -->
<svg version="1.1" id="Layer_1" xmlns="http://www.w3.org/2000/svg" xmlns:xlink="http://www.w3.org/1999/xlink" x="0px" y="0px"
	 viewBox="0 0 527 72" style="enable-background:new 0 0 527 72;" xml:space="preserve">
<style type="text/css">
	.st0{fill:#c50000;}
</style>
<g>
	<path class="st0" d="M0.7,69.8c0-22.6,0-45,0-67.4c1.5-0.2,3-0.5,4.5-0.6c14.3-1,28.6-1.3,42.9-0.9c7.6,0.2,15.2,1,22.5,3.5
		c4.4,1.5,8.3,3.6,11,7.5c2.9,4.2,2.7,9.4-0.8,13.1c-1.5,1.6-3.3,3-5.2,4c-2.7,1.4-5.7,2.3-8.6,3.5c0.5,0.1,1,0.3,1.6,0.5
		c4.3,1,8.4,2.4,12,5c8.3,5.9,8.6,15.9,0.8,22.5c-4.7,4-10.3,6.2-16.3,7.4c-6.5,1.4-13.1,2.3-19.8,2.4c-9.4,0.1-18.8,0.4-28.1,0.3
		C11.7,70.7,6.3,70.2,0.7,69.8z M29,56.7c6-0.1,11.9,0.6,17.7-0.6c2.5-0.5,5.1-1.5,7.2-2.9c3.8-2.4,3.4-7.2-0.5-9.4
		c-0.9-0.5-1.9-1-2.9-1.2c-3-0.6-6-1.4-9.1-1.6c-4.1-0.3-8.3-0.1-12.5-0.1C29,46.2,29,51.3,29,56.7z M29,15.1c0,4.1,0,8,0,12.4
		c5.8-0.3,11.4-0.5,17-1c2.1-0.2,4.2-1.1,6.1-2.2c3.1-1.7,3-5.5,0-7.3c-1.3-0.8-2.7-1.3-4.1-1.6C41.8,14.1,35.5,14.3,29,15.1z"/>
	<path class="st0" d="M429.6,69.9c-9.1,0-18.1,0-27.1,0c0-6-0.2-12,0-17.9s0.8-11.9,1-17.9C398.1,46.5,391,57.8,385,69.9
		c-12.6,0-25,0-37.6,0c0-16.6,0-33.1,0-49.8c9,0,18,0,27.1,0c0.3,11.4,0.2,22.8-0.8,34.2c3.8-5.3,6-11.4,9-17.1
		c3.1-5.7,6.1-11.4,9.2-17.2c12.6,0,25,0,37.7,0C429.6,36.6,429.6,53.1,429.6,69.9z"/>
	<path class="st0" d="M283.4,51.9c0,6,0,11.9,0,18c-9.6,0-19.1,0-28.6,0c0-16.6,0-33.1,0-49.8c9.5,0,19,0,28.6,0
		c0,5.6,0,11.1,0,16.8c6.8,0,13.4,0,20.2,0c0-5.6,0-11.1,0-16.8c9.7,0,19.1,0,28.7,0c0,16.6,0,33.1,0,49.8c-9.5,0-19,0-28.6,0
		c0-6,0-11.9,0-18C296.9,51.9,290.3,51.9,283.4,51.9z"/>
	<path class="st0" d="M172.2,51.6c-16.5,0-32.8,0-49.2,0c-0.1,0.2-0.2,0.3-0.2,0.5c0.8,0.7,1.6,1.4,2.6,1.9c3,1.7,6.4,2.2,9.7,2.7
		c6.7,0.9,13.4,0.5,20.2,0c2.6-0.2,5.2-0.8,7.8-1.1c0.7-0.1,1.5-0.2,2.4-0.3c1.2,4.2,2.4,8.3,3.7,12.7c-3.4,0.7-6.5,1.4-9.7,1.9
		c-8.2,1.3-16.4,1.7-24.6,1.3c-7.9-0.3-15.8-1.4-23.2-4.5c-3.7-1.6-7.1-3.6-10-6.5c-8-8-8.3-19.9-0.8-28.4c5.6-6.4,12.8-9.9,21-11.6
		c10.5-2.2,21-2.2,31.4,0.7c6.1,1.7,11.5,4.7,15.3,9.9C173.1,37,174.5,43.8,172.2,51.6z M146.5,38.4c-0.1-2.4-1.4-4-3.2-5.3
		c-2-1.4-4.4-1.9-6.8-2.1c-4.2-0.3-8.1,0.4-11.5,3c-1.4,1.1-2.4,2.4-2.6,4.3C130.5,38.4,138.4,38.4,146.5,38.4z"/>
	<path class="st0" d="M473.6,51.8c0,6,0,11.9,0,18c-9.6,0-19.1,0-28.6,0c0-16.6,0-33.1,0-49.8c9.5,0,19,0,28.6,0
		c0,6.4,0,12.6,0,18.8c1.6,0.6,2.4-0.1,3.3-1c4.8-5.6,9.6-11.1,14.3-16.7c0.7-0.8,1.4-1.2,2.5-1.2c10.4,0,20.7,0,31.1,0
		c0.3,0,0.6,0.1,1.5,0.1c-9.3,7.1-18.3,13.9-27.6,20.9c0.8,0.2,1.4,0.3,1.9,0.4c6.3,1.6,10.8,5.6,14.3,10.8c2.7,3.9,5.1,8,7.6,12
		c1.2,1.8,2.4,3.6,3.7,5.7c-0.8,0-1.3,0-1.9,0c-8.9,0-17.7,0-26.6,0c-1.5,0-2.5-0.5-3.2-1.7c-1.7-2.8-3.5-5.6-5.1-8.5
		C486.1,53.6,481,51,473.6,51.8z"/>
	<path class="st0" d="M244.5,20.6c-1.5,4.8-2.8,9.3-4.2,13.8c-2.8-0.4-5.5-0.7-8.2-1c-5.3-0.6-10.6-0.3-15.6,1.6
		c-1.5,0.6-2.9,1.4-4.1,2.3c-5.4,4.1-5.1,11.5,0.5,15.4c3.5,2.4,7.4,3.4,11.5,3.6c5.7,0.3,11.4,0.3,17.2-1.2c1.1,4.6,2.2,9.1,3.4,14
		c-1.5,0.3-2.9,0.7-4.3,1c-7.9,1.2-15.9,1.5-23.9,1.1c-8.5-0.5-16.8-1.8-24.4-5.9c-5.1-2.7-9.3-6.2-11.7-11.6
		c-3.3-7.3-1.9-15.8,3.6-21.9c5-5.5,11.4-8.5,18.4-10.5c5.5-1.5,11.1-2.1,16.8-2.5c7.3-0.5,14.5,0,21.7,1
		C242.1,20.1,243.1,20.3,244.5,20.6z"/>
</g>
</svg>
